<mxfile host="app.diagrams.net" agent="Mozilla/5.0 (Macintosh; Intel Mac OS X 10_15_7) AppleWebKit/605.1.15 (KHTML, like Gecko) Version/16.5 Safari/605.1.15" version="24.8.4">
  <diagram name="Страница — 1" id="Bnve_xXVXLHOw7MRkxe_">
    <mxGraphModel dx="2174" dy="757" grid="1" gridSize="10" guides="1" tooltips="1" connect="1" arrows="1" fold="1" page="1" pageScale="1" pageWidth="1200" pageHeight="1920" math="1" shadow="0">
      <root>
        <mxCell id="0" />
        <mxCell id="1" parent="0" />
        <mxCell id="Hp9CZ2m9elQ81jnvMiZo-2" value="" style="endArrow=classic;startArrow=classic;html=1;rounded=0;" edge="1" parent="1">
          <mxGeometry width="50" height="50" relative="1" as="geometry">
            <mxPoint x="80" y="920" as="sourcePoint" />
            <mxPoint x="80" y="360" as="targetPoint" />
          </mxGeometry>
        </mxCell>
        <mxCell id="Hp9CZ2m9elQ81jnvMiZo-3" value="" style="endArrow=classic;startArrow=classic;html=1;rounded=0;" edge="1" parent="1">
          <mxGeometry width="50" height="50" relative="1" as="geometry">
            <mxPoint x="1160" y="920" as="sourcePoint" />
            <mxPoint x="80" y="915.1131221719456" as="targetPoint" />
          </mxGeometry>
        </mxCell>
        <mxCell id="Hp9CZ2m9elQ81jnvMiZo-5" value="Длительность проекта, мес." style="text;strokeColor=none;fillColor=none;html=1;fontSize=16;fontStyle=1;verticalAlign=middle;align=center;" vertex="1" parent="1">
          <mxGeometry x="860" y="960" width="230" height="40" as="geometry" />
        </mxCell>
        <mxCell id="Hp9CZ2m9elQ81jnvMiZo-6" value="Стоимость проекта, млн. руб." style="text;strokeColor=none;fillColor=none;html=1;fontSize=20;fontStyle=1;verticalAlign=middle;align=center;rotation=270;" vertex="1" parent="1">
          <mxGeometry x="-75" y="465" width="100" height="130" as="geometry" />
        </mxCell>
        <mxCell id="Hp9CZ2m9elQ81jnvMiZo-12" value="" style="line;strokeWidth=2;html=1;" vertex="1" parent="1">
          <mxGeometry x="60" y="880" width="40" height="10" as="geometry" />
        </mxCell>
        <mxCell id="Hp9CZ2m9elQ81jnvMiZo-13" value="" style="line;strokeWidth=2;html=1;" vertex="1" parent="1">
          <mxGeometry x="60" y="840" width="40" height="10" as="geometry" />
        </mxCell>
        <mxCell id="Hp9CZ2m9elQ81jnvMiZo-17" value="" style="line;strokeWidth=2;html=1;" vertex="1" parent="1">
          <mxGeometry x="60" y="400" width="40" height="10" as="geometry" />
        </mxCell>
        <mxCell id="Hp9CZ2m9elQ81jnvMiZo-18" value="" style="line;strokeWidth=2;html=1;" vertex="1" parent="1">
          <mxGeometry x="60" y="640" width="40" height="10" as="geometry" />
        </mxCell>
        <mxCell id="Hp9CZ2m9elQ81jnvMiZo-19" value="" style="line;strokeWidth=2;html=1;direction=south;" vertex="1" parent="1">
          <mxGeometry x="120" y="900" width="10" height="30" as="geometry" />
        </mxCell>
        <mxCell id="Hp9CZ2m9elQ81jnvMiZo-20" value="" style="line;strokeWidth=2;html=1;" vertex="1" parent="1">
          <mxGeometry x="60" y="440" width="40" height="10" as="geometry" />
        </mxCell>
        <mxCell id="Hp9CZ2m9elQ81jnvMiZo-21" value="" style="line;strokeWidth=2;html=1;" vertex="1" parent="1">
          <mxGeometry x="60" y="480" width="40" height="10" as="geometry" />
        </mxCell>
        <mxCell id="Hp9CZ2m9elQ81jnvMiZo-22" value="" style="line;strokeWidth=2;html=1;" vertex="1" parent="1">
          <mxGeometry x="60" y="525" width="40" height="10" as="geometry" />
        </mxCell>
        <mxCell id="Hp9CZ2m9elQ81jnvMiZo-23" value="" style="line;strokeWidth=2;html=1;" vertex="1" parent="1">
          <mxGeometry x="60" y="560" width="40" height="10" as="geometry" />
        </mxCell>
        <mxCell id="Hp9CZ2m9elQ81jnvMiZo-24" value="" style="line;strokeWidth=2;html=1;" vertex="1" parent="1">
          <mxGeometry x="60" y="600" width="40" height="10" as="geometry" />
        </mxCell>
        <mxCell id="Hp9CZ2m9elQ81jnvMiZo-25" value="" style="line;strokeWidth=2;html=1;" vertex="1" parent="1">
          <mxGeometry x="60" y="680" width="40" height="10" as="geometry" />
        </mxCell>
        <mxCell id="Hp9CZ2m9elQ81jnvMiZo-26" value="" style="line;strokeWidth=2;html=1;" vertex="1" parent="1">
          <mxGeometry x="60" y="720" width="40" height="10" as="geometry" />
        </mxCell>
        <mxCell id="Hp9CZ2m9elQ81jnvMiZo-27" value="" style="line;strokeWidth=2;html=1;" vertex="1" parent="1">
          <mxGeometry x="60" y="760" width="40" height="10" as="geometry" />
        </mxCell>
        <mxCell id="Hp9CZ2m9elQ81jnvMiZo-28" value="" style="line;strokeWidth=2;html=1;" vertex="1" parent="1">
          <mxGeometry x="60" y="800" width="40" height="10" as="geometry" />
        </mxCell>
        <mxCell id="Hp9CZ2m9elQ81jnvMiZo-48" value="" style="line;strokeWidth=2;html=1;direction=south;" vertex="1" parent="1">
          <mxGeometry x="160" y="900" width="10" height="30" as="geometry" />
        </mxCell>
        <mxCell id="Hp9CZ2m9elQ81jnvMiZo-49" value="" style="line;strokeWidth=2;html=1;direction=south;" vertex="1" parent="1">
          <mxGeometry x="520" y="900" width="10" height="30" as="geometry" />
        </mxCell>
        <mxCell id="Hp9CZ2m9elQ81jnvMiZo-50" value="" style="line;strokeWidth=2;html=1;direction=south;" vertex="1" parent="1">
          <mxGeometry x="440" y="900" width="10" height="30" as="geometry" />
        </mxCell>
        <mxCell id="Hp9CZ2m9elQ81jnvMiZo-51" value="" style="line;strokeWidth=2;html=1;direction=south;" vertex="1" parent="1">
          <mxGeometry x="470" y="900" width="30" height="30" as="geometry" />
        </mxCell>
        <mxCell id="Hp9CZ2m9elQ81jnvMiZo-52" value="" style="line;strokeWidth=2;html=1;direction=south;" vertex="1" parent="1">
          <mxGeometry x="400" y="900" width="10" height="30" as="geometry" />
        </mxCell>
        <mxCell id="Hp9CZ2m9elQ81jnvMiZo-53" value="" style="line;strokeWidth=2;html=1;direction=south;" vertex="1" parent="1">
          <mxGeometry x="280" y="900" width="10" height="30" as="geometry" />
        </mxCell>
        <mxCell id="Hp9CZ2m9elQ81jnvMiZo-54" value="" style="line;strokeWidth=2;html=1;direction=south;" vertex="1" parent="1">
          <mxGeometry x="360" y="900" width="10" height="30" as="geometry" />
        </mxCell>
        <mxCell id="Hp9CZ2m9elQ81jnvMiZo-55" value="" style="line;strokeWidth=2;html=1;direction=south;" vertex="1" parent="1">
          <mxGeometry x="320" y="900" width="10" height="30" as="geometry" />
        </mxCell>
        <mxCell id="Hp9CZ2m9elQ81jnvMiZo-56" value="" style="line;strokeWidth=2;html=1;direction=south;" vertex="1" parent="1">
          <mxGeometry x="200" y="900" width="10" height="30" as="geometry" />
        </mxCell>
        <mxCell id="Hp9CZ2m9elQ81jnvMiZo-57" value="" style="line;strokeWidth=2;html=1;direction=south;" vertex="1" parent="1">
          <mxGeometry x="240" y="900" width="10" height="30" as="geometry" />
        </mxCell>
        <mxCell id="Hp9CZ2m9elQ81jnvMiZo-58" value="" style="line;strokeWidth=2;html=1;direction=south;" vertex="1" parent="1">
          <mxGeometry x="750" y="900" width="20" height="30" as="geometry" />
        </mxCell>
        <mxCell id="Hp9CZ2m9elQ81jnvMiZo-69" value="" style="line;strokeWidth=2;html=1;direction=south;" vertex="1" parent="1">
          <mxGeometry x="790" y="900" width="20" height="30" as="geometry" />
        </mxCell>
        <mxCell id="Hp9CZ2m9elQ81jnvMiZo-70" value="" style="line;strokeWidth=2;html=1;direction=south;" vertex="1" parent="1">
          <mxGeometry x="710" y="900" width="20" height="30" as="geometry" />
        </mxCell>
        <mxCell id="Hp9CZ2m9elQ81jnvMiZo-71" value="" style="line;strokeWidth=2;html=1;direction=south;" vertex="1" parent="1">
          <mxGeometry x="630" y="900" width="20" height="30" as="geometry" />
        </mxCell>
        <mxCell id="Hp9CZ2m9elQ81jnvMiZo-72" value="" style="line;strokeWidth=2;html=1;direction=south;" vertex="1" parent="1">
          <mxGeometry x="550" y="900" width="20" height="30" as="geometry" />
        </mxCell>
        <mxCell id="Hp9CZ2m9elQ81jnvMiZo-73" value="" style="line;strokeWidth=2;html=1;direction=south;" vertex="1" parent="1">
          <mxGeometry x="590" y="900" width="20" height="30" as="geometry" />
        </mxCell>
        <mxCell id="Hp9CZ2m9elQ81jnvMiZo-76" value="" style="line;strokeWidth=2;html=1;direction=south;" vertex="1" parent="1">
          <mxGeometry x="990" y="900" width="20" height="30" as="geometry" />
        </mxCell>
        <mxCell id="Hp9CZ2m9elQ81jnvMiZo-77" value="" style="line;strokeWidth=2;html=1;direction=south;" vertex="1" parent="1">
          <mxGeometry x="950" y="900" width="20" height="30" as="geometry" />
        </mxCell>
        <mxCell id="Hp9CZ2m9elQ81jnvMiZo-78" value="" style="line;strokeWidth=2;html=1;direction=south;" vertex="1" parent="1">
          <mxGeometry x="910" y="900" width="20" height="30" as="geometry" />
        </mxCell>
        <mxCell id="Hp9CZ2m9elQ81jnvMiZo-79" value="" style="line;strokeWidth=2;html=1;direction=south;" vertex="1" parent="1">
          <mxGeometry x="870" y="900" width="20" height="30" as="geometry" />
        </mxCell>
        <mxCell id="Hp9CZ2m9elQ81jnvMiZo-80" value="" style="line;strokeWidth=2;html=1;direction=south;" vertex="1" parent="1">
          <mxGeometry x="670" y="900" width="20" height="30" as="geometry" />
        </mxCell>
        <mxCell id="Hp9CZ2m9elQ81jnvMiZo-81" value="" style="line;strokeWidth=2;html=1;direction=south;" vertex="1" parent="1">
          <mxGeometry x="830" y="900" width="20" height="30" as="geometry" />
        </mxCell>
        <mxCell id="Hp9CZ2m9elQ81jnvMiZo-85" value="Стороннее оборудование" style="text;strokeColor=none;fillColor=none;html=1;fontSize=19;fontStyle=1;verticalAlign=middle;align=center;" vertex="1" parent="1">
          <mxGeometry x="300" y="430" width="100" height="40" as="geometry" />
        </mxCell>
        <mxCell id="Hp9CZ2m9elQ81jnvMiZo-86" value="" style="rounded=0;whiteSpace=wrap;html=1;" vertex="1" parent="1">
          <mxGeometry x="120" y="560" width="200" height="40" as="geometry" />
        </mxCell>
        <mxCell id="Hp9CZ2m9elQ81jnvMiZo-87" value="Vladdis" style="text;strokeColor=none;fillColor=none;html=1;fontSize=20;fontStyle=1;verticalAlign=middle;align=center;" vertex="1" parent="1">
          <mxGeometry x="160" y="560" width="100" height="40" as="geometry" />
        </mxCell>
        <mxCell id="Hp9CZ2m9elQ81jnvMiZo-88" value="" style="rounded=0;whiteSpace=wrap;html=1;" vertex="1" parent="1">
          <mxGeometry x="330" y="530" width="830" height="350" as="geometry" />
        </mxCell>
        <mxCell id="Hp9CZ2m9elQ81jnvMiZo-89" value="Коптерный захват" style="text;strokeColor=none;fillColor=none;html=1;fontSize=24;fontStyle=1;verticalAlign=middle;align=center;" vertex="1" parent="1">
          <mxGeometry x="695" y="660" width="100" height="40" as="geometry" />
        </mxCell>
        <mxCell id="Hp9CZ2m9elQ81jnvMiZo-91" value="&lt;b&gt;&lt;font style=&quot;font-size: 19px;&quot;&gt;Navvis реплика&lt;/font&gt;&lt;/b&gt;" style="rounded=0;whiteSpace=wrap;html=1;" vertex="1" parent="1">
          <mxGeometry x="700" y="340" width="520" height="160" as="geometry" />
        </mxCell>
        <mxCell id="Hp9CZ2m9elQ81jnvMiZo-93" value="" style="rounded=0;whiteSpace=wrap;html=1;" vertex="1" parent="1">
          <mxGeometry x="100" y="230" width="400" height="110" as="geometry" />
        </mxCell>
        <mxCell id="Hp9CZ2m9elQ81jnvMiZo-94" value="Шваброфон" style="text;strokeColor=none;fillColor=none;html=1;fontSize=19;fontStyle=1;verticalAlign=middle;align=center;" vertex="1" parent="1">
          <mxGeometry x="250" y="260" width="100" height="40" as="geometry" />
        </mxCell>
        <mxCell id="Hp9CZ2m9elQ81jnvMiZo-96" value="" style="rounded=0;whiteSpace=wrap;html=1;" vertex="1" parent="1">
          <mxGeometry x="560" y="90" width="680" height="230" as="geometry" />
        </mxCell>
        <mxCell id="Hp9CZ2m9elQ81jnvMiZo-98" value="Устройство для съёмки линейных объектов" style="text;strokeColor=none;fillColor=none;html=1;fontSize=24;fontStyle=1;verticalAlign=middle;align=center;" vertex="1" parent="1">
          <mxGeometry x="830" y="190" width="100" height="40" as="geometry" />
        </mxCell>
        <mxCell id="Hp9CZ2m9elQ81jnvMiZo-99" value="10" style="text;strokeColor=none;fillColor=none;html=1;fontSize=16;fontStyle=1;verticalAlign=middle;align=center;" vertex="1" parent="1">
          <mxGeometry x="-30" y="870" width="100" height="40" as="geometry" />
        </mxCell>
        <mxCell id="Hp9CZ2m9elQ81jnvMiZo-100" value="10" style="text;strokeColor=none;fillColor=none;html=1;fontSize=16;fontStyle=1;verticalAlign=middle;align=center;" vertex="1" parent="1">
          <mxGeometry x="-30" y="825" width="100" height="40" as="geometry" />
        </mxCell>
        <mxCell id="Hp9CZ2m9elQ81jnvMiZo-101" value="10" style="text;strokeColor=none;fillColor=none;html=1;fontSize=16;fontStyle=1;verticalAlign=middle;align=center;" vertex="1" parent="1">
          <mxGeometry x="-30" y="465" width="100" height="40" as="geometry" />
        </mxCell>
        <mxCell id="Hp9CZ2m9elQ81jnvMiZo-102" value="10" style="text;strokeColor=none;fillColor=none;html=1;fontSize=16;fontStyle=1;verticalAlign=middle;align=center;" vertex="1" parent="1">
          <mxGeometry x="-30" y="505" width="100" height="40" as="geometry" />
        </mxCell>
        <mxCell id="Hp9CZ2m9elQ81jnvMiZo-103" value="10" style="text;strokeColor=none;fillColor=none;html=1;fontSize=16;fontStyle=1;verticalAlign=middle;align=center;" vertex="1" parent="1">
          <mxGeometry x="-30" y="545" width="100" height="40" as="geometry" />
        </mxCell>
        <mxCell id="Hp9CZ2m9elQ81jnvMiZo-104" value="10" style="text;strokeColor=none;fillColor=none;html=1;fontSize=16;fontStyle=1;verticalAlign=middle;align=center;" vertex="1" parent="1">
          <mxGeometry x="-30" y="590" width="100" height="35" as="geometry" />
        </mxCell>
        <mxCell id="Hp9CZ2m9elQ81jnvMiZo-105" value="10" style="text;strokeColor=none;fillColor=none;html=1;fontSize=16;fontStyle=1;verticalAlign=middle;align=center;" vertex="1" parent="1">
          <mxGeometry x="-30" y="625" width="100" height="40" as="geometry" />
        </mxCell>
        <mxCell id="Hp9CZ2m9elQ81jnvMiZo-106" value="10" style="text;strokeColor=none;fillColor=none;html=1;fontSize=16;fontStyle=1;verticalAlign=middle;align=center;" vertex="1" parent="1">
          <mxGeometry x="-30" y="665" width="100" height="40" as="geometry" />
        </mxCell>
        <mxCell id="Hp9CZ2m9elQ81jnvMiZo-107" value="10" style="text;strokeColor=none;fillColor=none;html=1;fontSize=16;fontStyle=1;verticalAlign=middle;align=center;" vertex="1" parent="1">
          <mxGeometry x="-30" y="705" width="100" height="40" as="geometry" />
        </mxCell>
        <mxCell id="Hp9CZ2m9elQ81jnvMiZo-108" value="10" style="text;strokeColor=none;fillColor=none;html=1;fontSize=16;fontStyle=1;verticalAlign=middle;align=center;" vertex="1" parent="1">
          <mxGeometry x="-30" y="750" width="100" height="35" as="geometry" />
        </mxCell>
        <mxCell id="Hp9CZ2m9elQ81jnvMiZo-109" value="10" style="text;strokeColor=none;fillColor=none;html=1;fontSize=16;fontStyle=1;verticalAlign=middle;align=center;" vertex="1" parent="1">
          <mxGeometry x="-30" y="785" width="100" height="40" as="geometry" />
        </mxCell>
        <mxCell id="Hp9CZ2m9elQ81jnvMiZo-113" value="1" style="text;strokeColor=none;fillColor=none;html=1;fontSize=16;fontStyle=1;verticalAlign=middle;align=center;" vertex="1" parent="1">
          <mxGeometry x="110" y="940" width="30" height="40" as="geometry" />
        </mxCell>
        <mxCell id="Hp9CZ2m9elQ81jnvMiZo-114" value="1" style="text;strokeColor=none;fillColor=none;html=1;fontSize=16;fontStyle=1;verticalAlign=middle;align=center;" vertex="1" parent="1">
          <mxGeometry x="190" y="930" width="30" height="60" as="geometry" />
        </mxCell>
        <mxCell id="Hp9CZ2m9elQ81jnvMiZo-116" value="1" style="text;strokeColor=none;fillColor=none;html=1;fontSize=16;fontStyle=1;verticalAlign=middle;align=center;" vertex="1" parent="1">
          <mxGeometry x="310" y="940" width="30" height="40" as="geometry" />
        </mxCell>
        <mxCell id="Hp9CZ2m9elQ81jnvMiZo-117" value="1" style="text;strokeColor=none;fillColor=none;html=1;fontSize=16;fontStyle=1;verticalAlign=middle;align=center;" vertex="1" parent="1">
          <mxGeometry x="275" y="940" width="20" height="40" as="geometry" />
        </mxCell>
        <mxCell id="Hp9CZ2m9elQ81jnvMiZo-119" value="1" style="text;strokeColor=none;fillColor=none;html=1;fontSize=16;fontStyle=1;verticalAlign=middle;align=center;" vertex="1" parent="1">
          <mxGeometry x="230" y="940" width="30" height="40" as="geometry" />
        </mxCell>
        <mxCell id="Hp9CZ2m9elQ81jnvMiZo-120" value="1" style="text;strokeColor=none;fillColor=none;html=1;fontSize=16;fontStyle=1;verticalAlign=middle;align=center;" vertex="1" parent="1">
          <mxGeometry x="150" y="940" width="30" height="40" as="geometry" />
        </mxCell>
        <mxCell id="Hp9CZ2m9elQ81jnvMiZo-121" value="1" style="text;strokeColor=none;fillColor=none;html=1;fontSize=16;fontStyle=1;verticalAlign=middle;align=center;" vertex="1" parent="1">
          <mxGeometry x="665" y="940" width="30" height="40" as="geometry" />
        </mxCell>
        <mxCell id="Hp9CZ2m9elQ81jnvMiZo-122" value="1" style="text;strokeColor=none;fillColor=none;html=1;fontSize=16;fontStyle=1;verticalAlign=middle;align=center;" vertex="1" parent="1">
          <mxGeometry x="625" y="940" width="30" height="40" as="geometry" />
        </mxCell>
        <mxCell id="Hp9CZ2m9elQ81jnvMiZo-123" value="1" style="text;strokeColor=none;fillColor=none;html=1;fontSize=16;fontStyle=1;verticalAlign=middle;align=center;" vertex="1" parent="1">
          <mxGeometry x="350" y="940" width="30" height="40" as="geometry" />
        </mxCell>
        <mxCell id="Hp9CZ2m9elQ81jnvMiZo-124" value="1" style="text;strokeColor=none;fillColor=none;html=1;fontSize=16;fontStyle=1;verticalAlign=middle;align=center;" vertex="1" parent="1">
          <mxGeometry x="585" y="940" width="30" height="40" as="geometry" />
        </mxCell>
        <mxCell id="Hp9CZ2m9elQ81jnvMiZo-125" value="1" style="text;strokeColor=none;fillColor=none;html=1;fontSize=16;fontStyle=1;verticalAlign=middle;align=center;" vertex="1" parent="1">
          <mxGeometry x="545" y="940" width="30" height="40" as="geometry" />
        </mxCell>
        <mxCell id="Hp9CZ2m9elQ81jnvMiZo-126" value="1" style="text;strokeColor=none;fillColor=none;html=1;fontSize=16;fontStyle=1;verticalAlign=middle;align=center;" vertex="1" parent="1">
          <mxGeometry x="510" y="940" width="30" height="40" as="geometry" />
        </mxCell>
        <mxCell id="Hp9CZ2m9elQ81jnvMiZo-127" value="1" style="text;strokeColor=none;fillColor=none;html=1;fontSize=16;fontStyle=1;verticalAlign=middle;align=center;" vertex="1" parent="1">
          <mxGeometry x="385" y="940" width="30" height="40" as="geometry" />
        </mxCell>
        <mxCell id="Hp9CZ2m9elQ81jnvMiZo-128" value="1" style="text;strokeColor=none;fillColor=none;html=1;fontSize=16;fontStyle=1;verticalAlign=middle;align=center;" vertex="1" parent="1">
          <mxGeometry x="430" y="940" width="30" height="40" as="geometry" />
        </mxCell>
        <mxCell id="Hp9CZ2m9elQ81jnvMiZo-129" value="1" style="text;strokeColor=none;fillColor=none;html=1;fontSize=16;fontStyle=1;verticalAlign=middle;align=center;" vertex="1" parent="1">
          <mxGeometry x="470" y="940" width="30" height="40" as="geometry" />
        </mxCell>
        <mxCell id="Hp9CZ2m9elQ81jnvMiZo-130" value="" style="rounded=0;whiteSpace=wrap;html=1;" vertex="1" parent="1">
          <mxGeometry x="85" y="355" width="595" height="190" as="geometry" />
        </mxCell>
        <mxCell id="Hp9CZ2m9elQ81jnvMiZo-131" value="Стороннее оборудование" style="text;strokeColor=none;fillColor=none;html=1;fontSize=24;fontStyle=1;verticalAlign=middle;align=center;" vertex="1" parent="1">
          <mxGeometry x="332.5" y="430" width="100" height="40" as="geometry" />
        </mxCell>
      </root>
    </mxGraphModel>
  </diagram>
</mxfile>
